<svg width="24" height="24" viewBox="0 0 25 24" fill="none" xmlns="http://www.w3.org/2000/svg">
<path fill-rule="evenodd" clip-rule="evenodd" d="M16.0672 0.417018C15.5111 0.973042 15.5111 1.87454 16.0672 2.43056L18.1591 4.52255H15.0796C8.00255 4.52255 2.26548 10.2596 2.26548 17.3367V22.5762C2.26548 23.3625 2.90293 24 3.68927 24C4.4756 24 5.11306 23.3625 5.11306 22.5762V17.3367C5.11306 11.8323 9.57522 7.37013 15.0796 7.37013H18.1591L16.0672 9.46212C15.5111 10.0181 15.5111 10.9196 16.0672 11.4757C16.6232 12.0317 17.5247 12.0317 18.0807 11.4757L22.6032 6.95311C23.1593 6.39709 23.1593 5.49559 22.6032 4.93957L18.0807 0.417018C17.5247 -0.139006 16.6232 -0.139006 16.0672 0.417018Z" fill="white" opacity="current"/>
</svg>
