<svg width="24" height="24" viewBox="0 0 25 24" fill="none" xmlns="http://www.w3.org/2000/svg">
<path fill-rule="evenodd" clip-rule="evenodd" d="M8.93272 0.417018C9.48875 0.973042 9.48875 1.87454 8.93272 2.43056L6.84073 4.52255H9.9203C16.9973 4.52255 22.7344 10.2596 22.7344 17.3367V22.5762C22.7344 23.3625 22.0969 24 21.3106 24C20.5243 24 19.8868 23.3625 19.8868 22.5762V17.3367C19.8868 11.8323 15.4247 7.37013 9.9203 7.37013H6.84073L8.93272 9.46212C9.48875 10.0181 9.48875 10.9196 8.93272 11.4757C8.3767 12.0317 7.47521 12.0317 6.91918 11.4757L2.39663 6.95311C1.84061 6.39709 1.84061 5.49559 2.39663 4.93957L6.91918 0.417018C7.47521 -0.139006 8.3767 -0.139006 8.93272 0.417018Z" fill="white" opacity="current"/>
</svg>
