<svg width="24" height="24" viewBox="0 0 24 24" fill="none" xmlns="http://www.w3.org/2000/svg">
<path d="M6.99672 8.99872C6.99672 8.44643 6.549 7.99872 5.99672 7.99872C5.44443 7.99872 4.99672 8.44643 4.99672 8.99872H6.99672ZM19.0017 8.99872C19.0017 8.44643 18.554 7.99872 18.0017 7.99872C17.4494 7.99872 17.0017 8.44643 17.0017 8.99872H19.0017ZM15.0001 9.99914C15.0001 9.44685 14.5523 8.99914 14.0001 8.99914C13.4478 8.99914 13.0001 9.44685 13.0001 9.99914H15.0001ZM13.0001 17.0021C13.0001 17.5543 13.4478 18.0021 14.0001 18.0021C14.5523 18.0021 15.0001 17.5543 15.0001 17.0021H13.0001ZM10.9984 9.99914C10.9984 9.44685 10.5507 8.99914 9.99839 8.99914C9.4461 8.99914 8.99839 9.44685 8.99839 9.99914H10.9984ZM8.99839 17.0021C8.99839 17.5543 9.4461 18.0021 9.99839 18.0021C10.5507 18.0021 10.9984 17.5543 10.9984 17.0021H8.99839ZM4.49609 4.99747C3.94381 4.99747 3.49609 5.44518 3.49609 5.99747C3.49609 6.54975 3.94381 6.99747 4.49609 6.99747V4.99747ZM19.5023 6.99747C20.0546 6.99747 20.5023 6.54975 20.5023 5.99747C20.5023 5.44518 20.0546 4.99747 19.5023 4.99747V6.99747ZM7.04887 5.68124C6.87422 6.20518 7.15738 6.7715 7.68132 6.94615C8.20527 7.1208 8.77159 6.83764 8.94624 6.3137L7.04887 5.68124ZM8.54178 4.36479L9.49046 4.68102L9.49054 4.68079L8.54178 4.36479ZM10.4406 2.99622L10.4403 3.99622H10.4406V2.99622ZM13.5579 2.99622L13.5579 3.99622L13.5591 3.99622L13.5579 2.99622ZM15.4587 4.36479L16.4077 4.04961L16.4074 4.04879L15.4587 4.36479ZM15.0519 6.31265C15.2259 6.83678 15.7919 7.12057 16.3161 6.9465C16.8402 6.77243 17.124 6.20642 16.9499 5.68229L15.0519 6.31265ZM4.99672 8.99872V19.0029H6.99672V8.99872H4.99672ZM4.99672 19.0029C4.99672 20.6602 6.34024 22.0037 7.99755 22.0037V20.0037C7.44481 20.0037 6.99672 19.5556 6.99672 19.0029H4.99672ZM7.99755 22.0037H16.0009V20.0037H7.99755V22.0037ZM16.0009 22.0037C17.6582 22.0037 19.0017 20.6602 19.0017 19.0029H17.0017C17.0017 19.5556 16.5536 20.0037 16.0009 20.0037V22.0037ZM19.0017 19.0029V8.99872H17.0017V19.0029H19.0017ZM13.0001 9.99914V17.0021H15.0001V9.99914H13.0001ZM8.99839 9.99914V17.0021H10.9984V9.99914H8.99839ZM4.49609 6.99747H19.5023V4.99747H4.49609V6.99747ZM8.94624 6.3137L9.49046 4.68102L7.5931 4.04856L7.04887 5.68124L8.94624 6.3137ZM9.49054 4.68079C9.62672 4.27191 10.0094 3.99611 10.4403 3.99622L10.4408 1.99622C9.14863 1.99591 8.00135 2.82282 7.59302 4.04879L9.49054 4.68079ZM10.4406 3.99622H13.5579V1.99622H10.4406V3.99622ZM13.5591 3.99622C13.9904 3.99568 14.3736 4.27156 14.5099 4.68079L16.4074 4.04879C15.9987 2.82177 14.8499 1.99462 13.5566 1.99622L13.5591 3.99622ZM14.5096 4.67997L15.0519 6.31265L16.9499 5.68229L16.4077 4.04961L14.5096 4.67997Z" fill="#323232"/>
</svg>
