<svg width="17" height="14" viewBox="0 0 17 14" fill="none" xmlns="http://www.w3.org/2000/svg">
<path fill-rule="evenodd" clip-rule="evenodd" d="M2.95762 10.2615C2.31881 10.9003 2.31881 11.936 2.95762 12.5748C3.59643 13.2136 4.63214 13.2136 5.27095 12.5748L8.53237 9.3134L11.7938 12.5749C12.4326 13.2137 13.4684 13.2137 14.1072 12.5749C14.746 11.9361 14.746 10.9003 14.1072 10.2615L10.8457 7.00007L14.1072 3.7386C14.746 3.09979 14.746 2.06408 14.1072 1.42527C13.4684 0.786464 12.4326 0.786466 11.7938 1.42527L8.53237 4.68674L5.27095 1.42533C4.63214 0.786518 3.59643 0.786518 2.95762 1.42533C2.31881 2.06413 2.31881 3.09985 2.95762 3.73866L6.21904 7.00007L2.95762 10.2615Z" fill="black"/>
</svg>
