   
<svg width="24" height="24" viewBox="0 0 25 25" fill="none" xmlns="http://www.w3.org/2000/svg">
<path fill-rule="evenodd" clip-rule="evenodd" d="M12.4292 17.3454C8.72629 17.3454 5.77839 15.2761 3.14052 12.0796C5.77839 8.88313 8.72629 6.81381 12.4292 6.81381C16.1321 6.81381 19.08 8.88313 21.7179 12.0796C19.08 15.2761 16.1321 17.3454 12.4292 17.3454ZM12.4292 4.18091C7.50837 4.18091 3.84876 7.029 0.958448 10.5887C0.252783 11.4578 0.252783 12.7014 0.958448 13.5705C3.84876 17.1302 7.50837 19.9783 12.4292 19.9783C17.35 19.9783 21.0096 17.1302 23.9 13.5705C24.6056 12.7014 24.6056 11.4578 23.9 10.5887C21.0096 7.029 17.35 4.18091 12.4292 4.18091ZM11.1291 12.0796C11.1291 11.3616 11.7112 10.7796 12.4291 10.7796C13.1471 10.7796 13.7291 11.3616 13.7291 12.0796C13.7291 12.7976 13.1471 13.3796 12.4291 13.3796C11.7112 13.3796 11.1291 12.7976 11.1291 12.0796ZM12.4291 8.37961C10.3857 8.37961 8.72913 10.0362 8.72913 12.0796C8.72913 14.1231 10.3857 15.7796 12.4291 15.7796C14.4726 15.7796 16.1291 14.1231 16.1291 12.0796C16.1291 10.0362 14.4726 8.37961 12.4291 8.37961Z" fill="white"/>
</svg>